<?xml version="1.0" encoding="utf-8"?>
<!-- Generator: Adobe Illustrator 17.0.0, SVG Export Plug-In . SVG Version: 6.00 Build 0)  -->
<!DOCTYPE svg PUBLIC "-//W3C//DTD SVG 1.1//EN" "http://www.w3.org/Graphics/SVG/1.1/DTD/svg11.dtd">
<svg version="1.1" id="Capa_1" xmlns="http://www.w3.org/2000/svg" xmlns:xlink="http://www.w3.org/1999/xlink" x="0px" y="0px"
	 width="100px" height="23.435px" viewBox="0 0 100 23.435" enable-background="new 0 0 100 23.435" xml:space="preserve">
<g>
	<g>
		<defs>
			<rect id="SVGID_3_" x="1" y="1" width="47.306" height="21.24"/>
		</defs>
		<clipPath id="SVGID_2_">
			<use xlink:href="#SVGID_3_"  overflow="visible"/>
		</clipPath>
		<rect x="1" y="7.999" clip-path="url(#SVGID_2_)" width="41.03" height="7.241"/>
		<rect x="1.241" y="8.241" clip-path="url(#SVGID_2_)" fill="#FFFFFF" width="40.548" height="6.758"/>
		<g clip-path="url(#SVGID_2_)">
			<defs>
				<rect id="SVGID_5_" x="1" y="1" width="47.306" height="21.24"/>
			</defs>
			<clipPath id="SVGID_4_">
				<use xlink:href="#SVGID_5_"  overflow="visible"/>
			</clipPath>
			<path clip-path="url(#SVGID_4_)" d="M4.259,12.737c-0.522,0-0.82-0.322-0.82-0.804v-0.627c0-0.48,0.298-0.804,0.82-0.804
				c0.521,0,0.819,0.323,0.819,0.804v0.627C5.077,12.415,4.779,12.737,4.259,12.737 M4.661,11.307c0-0.252-0.176-0.391-0.403-0.391
				c-0.227,0-0.404,0.14-0.404,0.391v0.627c0,0.251,0.177,0.391,0.404,0.391c0.227,0,0.403-0.14,0.403-0.391V11.307z"/>
			<path clip-path="url(#SVGID_4_)" d="M29.36,12.737c-0.521,0-0.819-0.322-0.819-0.804v-0.627c0-0.48,0.298-0.804,0.819-0.804
				c0.521,0,0.819,0.323,0.819,0.804v0.627C30.178,12.415,29.881,12.737,29.36,12.737 M29.763,11.307
				c0-0.252-0.177-0.391-0.403-0.391c-0.227,0-0.403,0.14-0.403,0.391v0.627c0,0.251,0.177,0.391,0.403,0.391
				c0.227,0,0.403-0.14,0.403-0.391V11.307z"/>
			<path clip-path="url(#SVGID_4_)" d="M38.773,12.737c-0.521,0-0.82-0.322-0.82-0.804v-0.627c0-0.48,0.298-0.804,0.82-0.804
				c0.521,0,0.819,0.323,0.819,0.804v0.627C39.592,12.415,39.293,12.737,38.773,12.737 M39.175,11.307
				c0-0.252-0.176-0.391-0.403-0.391c-0.227,0-0.403,0.14-0.403,0.391v0.627c0,0.251,0.176,0.391,0.403,0.391
				c0.226,0,0.403-0.14,0.403-0.391V11.307z"/>
			<path clip-path="url(#SVGID_4_)" d="M6.576,10.534h0.9c0.441,0,0.686,0.249,0.686,0.624c0,0.18-0.065,0.339-0.196,0.438
				c0.153,0.115,0.249,0.282,0.249,0.475c0,0.385-0.242,0.637-0.689,0.637h-0.95V10.534z M7.486,10.947H6.993v0.456h0.494
				c0.158,0,0.261-0.081,0.261-0.23C7.747,11.021,7.644,10.947,7.486,10.947 M7.539,12.294c0.171,0,0.261-0.087,0.261-0.239
				c0-0.155-0.103-0.239-0.261-0.239H6.993v0.479H7.539z"/>
			<path clip-path="url(#SVGID_4_)" d="M9.769,12.02h0.428c0.025,0.183,0.168,0.304,0.376,0.304c0.183,0,0.31-0.068,0.31-0.218
				c0-0.121-0.071-0.189-0.224-0.229l-0.366-0.1c-0.332-0.09-0.497-0.322-0.497-0.642c0-0.435,0.34-0.633,0.72-0.633
				c0.434,0,0.705,0.254,0.751,0.624h-0.462c-0.041-0.14-0.17-0.211-0.31-0.211c-0.158,0-0.282,0.068-0.282,0.22
				c0,0.127,0.099,0.183,0.217,0.214l0.354,0.096c0.335,0.09,0.515,0.294,0.515,0.661c0,0.391-0.254,0.63-0.726,0.63
				C10.098,12.737,9.791,12.452,9.769,12.02"/>
			<polygon clip-path="url(#SVGID_4_)" points="13.426,11.403 14.114,11.403 14.114,11.815 13.426,11.815 13.426,12.294 
				14.332,12.294 14.332,12.706 13.01,12.706 13.01,10.534 14.332,10.534 14.332,10.947 13.426,10.947 			"/>
			<path clip-path="url(#SVGID_4_)" d="M16.389,11.812v0.894h-0.416v-2.172h0.916c0.441,0,0.686,0.248,0.686,0.639
				c0,0.323-0.164,0.546-0.469,0.618l0.54,0.916h-0.477l-0.524-0.894H16.389z M16.897,10.947h-0.508v0.462h0.508
				c0.159,0,0.262-0.081,0.262-0.23C17.158,11.027,17.056,10.947,16.897,10.947"/>
			<path clip-path="url(#SVGID_4_)" d="M32.077,11.812v0.894h-0.416v-2.172h0.915c0.44,0,0.686,0.248,0.686,0.639
				c0,0.323-0.164,0.546-0.467,0.618l0.539,0.916h-0.479l-0.524-0.894H32.077z M32.586,10.947h-0.509v0.462h0.509
				c0.159,0,0.261-0.081,0.261-0.23C32.847,11.027,32.744,10.947,32.586,10.947"/>
			<polygon clip-path="url(#SVGID_4_)" points="20.486,10.534 20.924,10.534 20.148,12.706 19.745,12.706 18.969,10.534 
				19.407,10.534 19.947,12.045 			"/>
			<path clip-path="url(#SVGID_4_)" d="M22.699,12.268l-0.154,0.438H22.11l0.776-2.173h0.397l0.776,2.173h-0.435l-0.156-0.438
				H22.699z M23.084,11.17l-0.241,0.704h0.484L23.084,11.17z"/>
			<polygon clip-path="url(#SVGID_4_)" points="26.436,10.947 26.436,12.706 26.007,12.706 26.007,10.947 25.403,10.947 
				25.403,10.534 27.041,10.534 27.041,10.947 			"/>
			<polygon clip-path="url(#SVGID_4_)" points="34.974,12.706 34.974,12.293 35.427,12.293 35.427,10.946 34.974,10.946 
				34.974,10.534 36.296,10.534 36.296,10.946 35.843,10.946 35.843,12.293 36.296,12.293 36.296,12.706 			"/>
			<rect x="1" y="14.999" clip-path="url(#SVGID_4_)" width="9.654" height="7.241"/>
			<rect x="1.241" y="15.24" clip-path="url(#SVGID_4_)" fill="#FFFFFF" width="9.171" height="6.758"/>
			<polygon clip-path="url(#SVGID_4_)" points="7.151,18.402 7.839,18.402 7.839,18.815 7.151,18.815 7.151,19.293 8.057,19.293 
				8.057,19.706 6.735,19.706 6.735,17.533 8.057,17.533 8.057,17.946 7.151,17.946 			"/>
			<path clip-path="url(#SVGID_4_)" d="M3.438,19.706v-2.172h0.82c0.521,0,0.819,0.323,0.819,0.804v0.565
				c0,0.481-0.298,0.804-0.819,0.804H3.438z M4.661,18.337c0-0.251-0.177-0.391-0.403-0.391H3.855v1.347h0.404
				c0.226,0,0.403-0.14,0.403-0.391V18.337z"/>
			<rect x="10.413" y="14.999" clip-path="url(#SVGID_4_)" width="28.48" height="7.241"/>
			<rect x="10.654" y="15.24" clip-path="url(#SVGID_4_)" fill="#FFFFFF" width="27.998" height="6.758"/>
			<path clip-path="url(#SVGID_4_)" d="M34.87,19.02h0.428c0.025,0.183,0.167,0.304,0.375,0.304c0.183,0,0.311-0.068,0.311-0.217
				c0-0.121-0.072-0.189-0.224-0.23l-0.366-0.099c-0.331-0.091-0.496-0.323-0.496-0.643c0-0.435,0.341-0.633,0.719-0.633
				c0.435,0,0.705,0.254,0.751,0.624h-0.462c-0.041-0.14-0.171-0.211-0.31-0.211c-0.158,0-0.282,0.068-0.282,0.22
				c0,0.127,0.099,0.183,0.218,0.214l0.353,0.096c0.336,0.09,0.516,0.294,0.516,0.661c0,0.391-0.255,0.63-0.727,0.63
				C35.198,19.737,34.892,19.451,34.87,19.02"/>
			<polygon clip-path="url(#SVGID_4_)" points="32.252,18.402 32.941,18.402 32.941,18.815 32.252,18.815 32.252,19.293 
				33.159,19.293 33.159,19.706 31.836,19.706 31.836,17.533 33.159,17.533 33.159,17.946 32.252,17.946 			"/>
			<path clip-path="url(#SVGID_4_)" d="M25.837,19.268l-0.155,0.438h-0.434l0.775-2.172h0.397l0.775,2.172h-0.434l-0.155-0.438
				H25.837z M26.222,18.17l-0.242,0.704h0.484L26.222,18.17z"/>
			<polygon clip-path="url(#SVGID_4_)" points="16.148,19.706 16.148,19.293 16.601,19.293 16.601,17.946 16.148,17.946 
				16.148,17.533 17.47,17.533 17.47,17.946 17.017,17.946 17.017,19.293 17.47,19.293 17.47,19.706 			"/>
			<path clip-path="url(#SVGID_4_)" d="M22.265,19.706v-2.172h0.819c0.522,0,0.82,0.323,0.82,0.804v0.565
				c0,0.481-0.298,0.804-0.82,0.804H22.265z M23.487,18.337c0-0.251-0.177-0.391-0.403-0.391h-0.403v1.347h0.403
				c0.227,0,0.403-0.14,0.403-0.391V18.337z"/>
			<path clip-path="url(#SVGID_4_)" d="M28.541,19.706v-2.172h0.819c0.521,0,0.819,0.323,0.819,0.804v0.565
				c0,0.481-0.298,0.804-0.819,0.804H28.541z M29.763,18.337c0-0.251-0.177-0.391-0.403-0.391h-0.403v1.347h0.403
				c0.227,0,0.403-0.14,0.403-0.391V18.337z"/>
			<path clip-path="url(#SVGID_4_)" d="M20.766,17.533v1.4c0,0.481-0.298,0.803-0.819,0.803c-0.522,0-0.819-0.323-0.819-0.803v-1.4
				h0.415v1.4c0,0.252,0.177,0.391,0.404,0.391c0.226,0,0.403-0.139,0.403-0.391v-1.4H20.766z"/>
			<path clip-path="url(#SVGID_4_)" d="M14.49,18.979c-0.019,0.457-0.313,0.757-0.819,0.757c-0.522,0-0.819-0.322-0.819-0.803
				v-0.627c0-0.481,0.297-0.805,0.819-0.805c0.506,0,0.8,0.302,0.819,0.758h-0.419c-0.022-0.22-0.189-0.344-0.4-0.344
				c-0.227,0-0.404,0.139-0.404,0.391v0.627c0,0.251,0.178,0.39,0.404,0.39c0.211,0,0.378-0.121,0.4-0.345H14.49z"/>
			<rect x="38.652" y="14.999" clip-path="url(#SVGID_4_)" width="9.654" height="7.241"/>
			<rect x="38.893" y="15.24" clip-path="url(#SVGID_4_)" fill="#FFFFFF" width="9.171" height="6.758"/>
			<path clip-path="url(#SVGID_4_)" d="M42.73,17.533v1.4c0,0.481-0.299,0.803-0.82,0.803c-0.521,0-0.82-0.323-0.82-0.803v-1.4
				h0.416v1.4c0,0.252,0.178,0.391,0.404,0.391c0.227,0,0.403-0.139,0.403-0.391v-1.4H42.73z"/>
			<path clip-path="url(#SVGID_4_)" d="M45.867,18.979c-0.019,0.457-0.313,0.757-0.819,0.757c-0.522,0-0.82-0.322-0.82-0.803v-0.627
				c0-0.481,0.298-0.805,0.82-0.805c0.506,0,0.801,0.302,0.819,0.758h-0.419c-0.021-0.22-0.189-0.344-0.4-0.344
				c-0.227,0-0.403,0.139-0.403,0.391v0.627c0,0.251,0.176,0.39,0.403,0.39c0.211,0,0.379-0.121,0.4-0.345H45.867z"/>
			<rect x="1" y="1" clip-path="url(#SVGID_4_)" width="15.93" height="7.241"/>
			<path clip-path="url(#SVGID_4_)" fill="#FFFFFF" d="M4.259,5.738c-0.522,0-0.82-0.322-0.82-0.804V4.307
				c0-0.481,0.298-0.804,0.82-0.804c0.521,0,0.819,0.323,0.819,0.804v0.626C5.077,5.415,4.779,5.738,4.259,5.738 M4.661,4.307
				c0-0.252-0.176-0.391-0.403-0.391c-0.227,0-0.404,0.14-0.404,0.391v0.626c0,0.251,0.177,0.391,0.404,0.391
				c0.227,0,0.403-0.14,0.403-0.391V4.307z"/>
			<path clip-path="url(#SVGID_4_)" fill="#FFFFFF" d="M8.215,4.98C8.196,5.437,7.902,5.737,7.396,5.737
				c-0.521,0-0.82-0.322-0.82-0.803V4.307c0-0.48,0.299-0.803,0.82-0.803c0.506,0,0.8,0.301,0.819,0.758H7.796
				c-0.021-0.221-0.189-0.345-0.4-0.345c-0.227,0-0.404,0.14-0.404,0.391v0.628c0,0.251,0.177,0.39,0.404,0.39
				c0.211,0,0.379-0.121,0.4-0.344H8.215z"/>
			<path clip-path="url(#SVGID_4_)" fill="#FFFFFF" d="M14.49,4.98c-0.019,0.457-0.313,0.757-0.819,0.757
				c-0.522,0-0.819-0.322-0.819-0.803V4.307c0-0.48,0.297-0.803,0.819-0.803c0.506,0,0.8,0.301,0.819,0.758h-0.419
				c-0.022-0.221-0.189-0.345-0.4-0.345c-0.227,0-0.404,0.14-0.404,0.391v0.628c0,0.251,0.178,0.39,0.404,0.39
				c0.211,0,0.378-0.121,0.4-0.344H14.49z"/>
			<path clip-path="url(#SVGID_4_)" fill="#FFFFFF" d="M11.353,3.534v1.399c0,0.481-0.299,0.804-0.82,0.804
				c-0.521,0-0.819-0.323-0.819-0.804V3.534h0.416v1.399c0,0.252,0.177,0.391,0.403,0.391c0.227,0,0.404-0.139,0.404-0.391V3.534
				H11.353z"/>
		</g>
	</g>
</g>
</svg>
