<?xml version="1.0" encoding="utf-8"?>
<!-- Generator: Adobe Illustrator 17.0.0, SVG Export Plug-In . SVG Version: 6.00 Build 0)  -->
<!DOCTYPE svg PUBLIC "-//W3C//DTD SVG 1.1//EN" "http://www.w3.org/Graphics/SVG/1.1/DTD/svg11.dtd">
<svg version="1.1" id="Capa_1" xmlns="http://www.w3.org/2000/svg" xmlns:xlink="http://www.w3.org/1999/xlink" x="0px" y="0px"
	 width="500.923px" height="513.526px" viewBox="0 0 500.923 513.526" enable-background="new 0 0 500.923 513.526"
	 xml:space="preserve">
<rect x="59.35" y="360.616" fill="none" width="381.544" height="151.898"/>
<text transform="matrix(1 0 0 1 62.5621 378.8165)"><tspan x="0" y="0" font-family="'Barlow-SemiBold'" font-size="26">Para mejorar tu experiencia en el </tspan><tspan x="2.34" y="31.2" font-family="'Barlow-SemiBold'" font-size="26">sitio, te recomendamos ingresar </tspan><tspan x="59.799" y="62.399" font-family="'Barlow-SemiBold'" font-size="26">desde un computador.</tspan></text>
<g>
	<g>
		<path fill="#FFFFFF" d="M402.408,281.24c0,1.74-1.411,3.151-3.151,3.151H89.595c-1.74,0-3.151-1.411-3.151-3.151V71.606
			c0-1.74,1.411-3.151,3.151-3.151h309.663c1.74,0,3.151,1.411,3.151,3.151V281.24z"/>
		<path d="M399.258,288.003H89.595c-3.729,0-6.762-3.034-6.762-6.762V71.606c0-3.729,3.034-6.763,6.762-6.763h309.662
			c3.729,0,6.763,3.034,6.763,6.763V281.24C406.021,284.969,402.987,288.003,399.258,288.003z M90.057,280.778h308.739V72.068
			H90.057V280.778z"/>
	</g>
	<g>
		<rect x="199.663" y="285.238" fill="#FFFFFF" width="88.922" height="27.36"/>
		<path d="M288.585,316.211h-88.921c-1.995,0-3.612-1.617-3.612-3.612v-27.361c0-1.995,1.617-3.612,3.612-3.612h88.921
			c1.995,0,3.612,1.617,3.612,3.612v27.361C292.197,314.594,290.58,316.211,288.585,316.211z M203.275,308.987h81.697V288.85
			h-81.697V308.987z"/>
	</g>
	<g>
		<path fill="#FFFFFF" d="M184.585,327.689c0-8.185,6.635-14.82,14.82-14.82"/>
		<path d="M188.198,327.689h-7.224c0-10.164,8.268-18.432,18.432-18.432v7.224C193.225,316.481,188.198,321.509,188.198,327.689z"/>
	</g>
	<g>
		<path fill="#FFFFFF" d="M303.472,327.689c0-8.185-6.635-14.82-14.82-14.82"/>
		<path d="M307.084,327.689h-7.224c0-6.18-5.027-11.208-11.208-11.208v-7.224C298.815,309.256,307.084,317.525,307.084,327.689z"/>
	</g>
	<path d="M402.276,334.395H84.87c-1.995,0-3.612-1.617-3.612-3.612s1.617-3.612,3.612-3.612h317.406
		c1.995,0,3.612,1.617,3.612,3.612S404.271,334.395,402.276,334.395z"/>
	<g>
		<rect x="102.661" y="83.855" fill="#009245" width="284.319" height="184.558"/>
		<path d="M386.979,272.025H102.661c-1.995,0-3.612-1.617-3.612-3.612V83.855c0-1.995,1.617-3.612,3.612-3.612h284.318
			c1.995,0,3.612,1.617,3.612,3.612v184.558C390.591,270.408,388.974,272.025,386.979,272.025z M106.273,264.801h277.094V87.467
			H106.273V264.801z"/>
	</g>
	<path fill="#FFFFFF" d="M244.305,243.88c-35.621,0-64.6-28.979-64.6-64.599s28.979-64.6,64.6-64.6s64.6,28.979,64.6,64.6
		S279.925,243.88,244.305,243.88z M244.305,121.905c-31.637,0-57.375,25.738-57.375,57.375c0,31.637,25.739,57.375,57.375,57.375
		s57.375-25.738,57.375-57.375C301.68,147.643,275.942,121.905,244.305,121.905z"/>
	<g>
		<path fill="#009245" d="M214.51,188.517l15.041,15.877c0,0,17.625-38.02,46.036-48.883"/>
		<path fill="#FFFFFF" d="M229.551,208.006c-0.983,0-1.934-0.402-2.622-1.127l-15.041-15.876c-1.372-1.448-1.31-3.734,0.138-5.106
			c1.448-1.372,3.735-1.31,5.107,0.138l11.523,12.163c5.828-10.796,21.989-37.016,45.642-46.059c1.864-0.712,3.951,0.22,4.664,2.084
			c0.713,1.863-0.22,3.951-2.084,4.664c-26.681,10.202-43.879,46.663-44.05,47.03c-0.504,1.085-1.514,1.851-2.694,2.044
			C229.939,207.99,229.744,208.006,229.551,208.006z"/>
	</g>
</g>
</svg>
